<?xml version="1.0" encoding="utf-8"?>
<!-- Generator: Adobe Illustrator 20.1.0, SVG Export Plug-In . SVG Version: 6.00 Build 0)  -->
<svg version="1.1" id="Layer_1" xmlns="http://www.w3.org/2000/svg" xmlns:xlink="http://www.w3.org/1999/xlink" x="0px" y="0px"
	 viewBox="0 0 1366 768" style="enable-background:new 0 0 1366 768;" xml:space="preserve">
<style type="text/css">
	.st0{fill:#5CDB95;}
	.st1{fill:#05386B;}
	.st2{fill:none;stroke:#5CDB95;stroke-width:2;stroke-miterlimit:10;}
	.st3{fill:#05386B;stroke:#5CDB95;stroke-width:2;stroke-miterlimit:10;}
	.st4{fill:#5CDB95;stroke:#5CDB95;stroke-width:2;stroke-miterlimit:10;}
	.st5{fill:none;stroke:#05386B;stroke-width:2;stroke-miterlimit:10;}
</style>
<g>
	<rect x="-7.2" y="-6.9" class="st0" width="1380.5" height="781.7"/>
	<path d="M1372.7-6.4v780.7H-6.7V-6.4H1372.7 M1373.7-7.4H-7.7v782.7h1381.5V-7.4L1373.7-7.4z"/>
</g>
<g>
	<polygon class="st1" points="841.3,561.6 755.3,491.4 1107.3,490.8 1213,562.9 	"/>
	<path class="st0" d="M1107,491.8l102.7,70.1l-180.8-0.6l-187.3-0.6l-83.5-68.2l171.9-0.3L1107,491.8 M1107.6,489.8
		c-118.4,0.2-236.7,0.4-355.1,0.7c29.5,24.1,58.9,48.1,88.4,72.2c125.1,0.4,250.2,0.8,375.3,1.2
		C1180,539.2,1143.8,514.5,1107.6,489.8L1107.6,489.8z"/>
</g>
<g>
	<polygon class="st1" points="752.8,531.3 753.5,492.5 839.9,563.1 839.4,608.6 	"/>
	<g>
		<path class="st0" d="M754.4,494.6l48.5,39.6l36,29.4l-0.3,23.1l-0.2,19.7L805.5,577l-51.7-46.1L754.4,494.6 M752.5,490.5
			c-0.2,13.8-0.5,27.6-0.7,41.3c29.5,26.3,59.1,52.7,88.6,79c0.2-16,0.4-32.1,0.5-48.1C811.4,538.6,782,514.5,752.5,490.5
			L752.5,490.5z"/>
	</g>
</g>
<g>
	<g>
		<path class="st1" d="M984.5,779.8c-7.7,0-13.9-2.9-17.1-4.8V582.8h33.8v192.3c-3.9,2.4-8.2,3.9-12.7,4.5
			C987.2,779.7,985.9,779.8,984.5,779.8z"/>
		<g>
			<path class="st0" d="M1000.3,583.8v190.7c-3.7,2.2-7.7,3.5-11.8,4.1c-1.3,0.2-2.6,0.2-3.9,0.2c-7.1,0-12.8-2.5-16.1-4.3V583.8
				H1000.3 M1002.3,581.8h-35.8c0,64.6,0,129.2,0,193.8c2.4,1.5,9.1,5.2,18.1,5.2c1.3,0,2.7-0.1,4.1-0.3c6.2-0.8,10.9-3.2,13.6-4.9
				V581.8L1002.3,581.8z"/>
		</g>
	</g>
	<g>
		<line class="st2" x1="977.4" y1="629.3" x2="976.8" y2="706"/>
		<line class="st0" x1="977.4" y1="629.3" x2="976.8" y2="706"/>
	</g>
	<g>
		<line class="st2" x1="992.7" y1="701.3" x2="992.1" y2="778"/>
		<line class="st0" x1="992.7" y1="701.3" x2="992.1" y2="778"/>
	</g>
	<g>
		<line class="st2" x1="992.5" y1="648.6" x2="992.2" y2="686.9"/>
		<line class="st0" x1="992.5" y1="648.6" x2="992.2" y2="686.9"/>
	</g>
</g>
<g>
	<g>
		<path class="st1" d="M984.5,525.8c-7.7,0-13.9-2.9-17.1-4.8V328.8h33.8v192.3c-3.9,2.4-8.2,3.9-12.7,4.5
			C987.2,525.8,985.9,525.8,984.5,525.8z"/>
		<g>
			<path class="st0" d="M1000.3,329.8v190.7c-3.7,2.2-7.7,3.5-11.8,4.1c-1.3,0.2-2.6,0.2-3.9,0.2c-7.1,0-12.8-2.5-16.1-4.3V329.8
				H1000.3 M1002.3,327.8h-35.8c0,64.6,0,129.2,0,193.8c2.4,1.5,9.1,5.2,18.1,5.2c1.3,0,2.7-0.1,4.1-0.3c6.2-0.8,10.9-3.2,13.6-4.9
				V327.8L1002.3,327.8z"/>
		</g>
	</g>
	<g>
		<line class="st2" x1="977.4" y1="375.3" x2="976.8" y2="452"/>
		<line class="st0" x1="977.4" y1="375.3" x2="976.8" y2="452"/>
	</g>
	<g>
		<line class="st2" x1="992.7" y1="447.3" x2="992.1" y2="524"/>
		<line class="st0" x1="992.7" y1="447.3" x2="992.1" y2="524"/>
	</g>
	<g>
		<line class="st2" x1="992.5" y1="394.6" x2="992.2" y2="432.9"/>
		<line class="st0" x1="992.5" y1="394.6" x2="992.2" y2="432.9"/>
	</g>
</g>
<g>
	<polygon class="st1" points="841.4,609.8 841.9,563.6 1215.2,564.9 1213.5,629.5 	"/>
	<g>
		<path class="st0" d="M842.9,564.6l371.3,1.2l-0.8,31.3l-0.8,31.3l-128.9-6.8l-241.2-12.7l0.2-22.2L842.9,564.6 M840.9,562.6
			c-0.2,16-0.4,32.1-0.5,48.1c124.7,6.6,249.4,13.2,374.1,19.8c0.6-22.2,1.2-44.4,1.8-66.7C1091.1,563.5,966,563.1,840.9,562.6
			L840.9,562.6z"/>
	</g>
</g>
<line class="st2" x1="863" y1="577.5" x2="863" y2="587.5"/>
<line class="st2" x1="894" y1="587.5" x2="894" y2="594.5"/>
<line class="st2" x1="934.5" y1="571.5" x2="934" y2="581.8"/>
<line class="st2" x1="955" y1="596.6" x2="955" y2="604.5"/>
<line class="st2" x1="984.4" y1="581.8" x2="984.4" y2="591"/>
<line class="st2" x1="1019.5" y1="569" x2="1019" y2="576.6"/>
<line class="st2" x1="1055" y1="600.5" x2="1055" y2="608.5"/>
<line class="st2" x1="1087" y1="576.6" x2="1087" y2="586.4"/>
<line class="st2" x1="1142" y1="576.6" x2="1142" y2="586.4"/>
<line class="st2" x1="1125" y1="600.5" x2="1125.5" y2="608.5"/>
<line class="st2" x1="1182" y1="591" x2="1181.5" y2="600.5"/>
<line class="st2" x1="761" y1="506" x2="761" y2="513"/>
<line class="st2" x1="772.8" y1="524" x2="772.8" y2="531.5"/>
<line class="st2" x1="790.8" y1="527.7" x2="790.8" y2="536"/>
<line class="st2" x1="799.3" y1="553.5" x2="799.3" y2="562.6"/>
<line class="st2" x1="816.5" y1="548" x2="816.5" y2="558.1"/>
<line class="st2" x1="823.8" y1="572.8" x2="823.8" y2="581.5"/>
<g>
	<circle class="st1" cx="929.5" cy="364.8" r="5.7"/>
	<g>
		<path class="st0" d="M929.5,360c2.6,0,4.7,2.1,4.7,4.7s-2.1,4.7-4.7,4.7s-4.7-2.1-4.7-4.7S926.9,360,929.5,360 M929.5,358
			c-3.7,0-6.7,3-6.7,6.7s3,6.7,6.7,6.7s6.7-3,6.7-6.7S933.2,358,929.5,358L929.5,358z"/>
	</g>
</g>
<g>
	<circle class="st1" cx="950.3" cy="364.8" r="5.7"/>
	<g>
		<path class="st0" d="M950.3,360c2.6,0,4.7,2.1,4.7,4.7s-2.1,4.7-4.7,4.7s-4.7-2.1-4.7-4.7S947.6,360,950.3,360 M950.3,358
			c-3.7,0-6.7,3-6.7,6.7s3,6.7,6.7,6.7s6.7-3,6.7-6.7S954,358,950.3,358L950.3,358z"/>
	</g>
</g>
<g>
	<circle class="st1" cx="929.5" cy="385.3" r="5.7"/>
	<g>
		<path class="st0" d="M929.5,380.5c2.6,0,4.7,2.1,4.7,4.7s-2.1,4.7-4.7,4.7s-4.7-2.1-4.7-4.7S926.9,380.5,929.5,380.5 M929.5,378.5
			c-3.7,0-6.7,3-6.7,6.7s3,6.7,6.7,6.7s6.7-3,6.7-6.7S933.2,378.5,929.5,378.5L929.5,378.5z"/>
	</g>
</g>
<g>
	<path class="st1" d="M937.9,350c0.4-1.6,0.9-4.1,1.2-7.2c1-9,2-17.3-2.2-23.8c-4-6.1-10.5-7.6-13-7.7c-3.9-0.2-5.7,0.6-5.7,0.6
		c-0.8,0.4-1.3,0.6-1.3,0.6l0,0c0,0,0.4-3.2,0.5-3.5c0.3-2.9-1.9-8.8-4.5-12.4c-10.5-14.7-30-17.7-30-17.7
		c-18.8-2.9-37.4,5.4-47.7,18.6c-0.6,0.8-10.3,13.4-7.5,19.2c0.6,1.2,2.2,3,2.2,2.9c0,0-1.2-1.6-2.2-2.9c-2.8-3.6-8.8-2.5-11.9-1.3
		c-1.2,0.5-7,2.7-8.9,9.1c-1.4,4.6-0.1,9.5,0.1,10.2c0.2,0.9,0.9,3.3,1,3.2c0,0,0-1.4-0.6-1.9c-1.5-1.2-6.7,1.8-7.8,6.8
		c-0.7,3.3,0.7,6.3,1.2,7.2H937.9z"/>
</g>
<g>
	<circle class="st1" cx="950.3" cy="385.3" r="5.7"/>
	<g>
		<path class="st0" d="M950.3,380.5c2.6,0,4.7,2.1,4.7,4.7s-2.1,4.7-4.7,4.7c-2.6,0-4.7-2.1-4.7-4.7S947.6,380.5,950.3,380.5
			 M950.3,378.5c-3.7,0-6.7,3-6.7,6.7s3,6.7,6.7,6.7c3.7,0,6.7-3,6.7-6.7S954,378.5,950.3,378.5L950.3,378.5z"/>
	</g>
</g>
<g>
	<circle class="st1" cx="929.5" cy="406.9" r="5.7"/>
	<g>
		<path class="st0" d="M929.5,402.2c2.6,0,4.7,2.1,4.7,4.7s-2.1,4.7-4.7,4.7s-4.7-2.1-4.7-4.7S926.9,402.2,929.5,402.2 M929.5,400.2
			c-3.7,0-6.7,3-6.7,6.7s3,6.7,6.7,6.7s6.7-3,6.7-6.7S933.2,400.2,929.5,400.2L929.5,400.2z"/>
	</g>
</g>
<g>
	<path class="st1" d="M776.9,421c0.4-1.6,0.9-4.1,1.2-7.2c1-9,2-17.3-2.2-23.8c-4-6.1-10.5-7.6-13-7.7c-3.9-0.2-5.7,0.6-5.7,0.6
		c-0.8,0.4-1.3,0.6-1.3,0.6l0,0c0,0,0.4-3.2,0.5-3.5c0.3-2.9-1.9-8.8-4.5-12.4c-10.5-14.7-30-17.7-30-17.7
		c-18.8-2.9-37.4,5.4-47.7,18.6c-0.6,0.8-10.3,13.4-7.5,19.2c0.6,1.2,2.2,3,2.2,2.9c0,0-1.2-1.6-2.2-2.9c-2.8-3.6-8.8-2.5-11.9-1.3
		c-1.2,0.5-7,2.7-8.9,9.1c-1.4,4.6-0.1,9.5,0.1,10.2c0.2,0.9,0.9,3.3,1,3.2c0,0,0-1.4-0.6-1.9c-1.5-1.2-6.7,1.8-7.8,6.8
		c-0.7,3.3,0.7,6.3,1.2,7.2H776.9z"/>
</g>
<g>
	<g>
		<polygon class="st1" points="892.2,348.4 981.2,255.8 1076.4,349.2 		"/>
		<g>
			<path class="st0" d="M981.2,257.2l47.4,46.5l45.3,44.5l-89.4-0.4l-90.1-0.4l42.4-44.2L981.2,257.2 M981.2,254.4
				c-30.5,31.7-60.9,63.4-91.4,95.1c63,0.3,126,0.6,189,0.8C1046.3,318.3,1013.8,286.3,981.2,254.4L981.2,254.4z"/>
		</g>
	</g>
	<g>
		<polygon class="st1" points="911.9,310.8 985,215.8 1056.8,310.8 		"/>
		<g>
			<path class="st0" d="M985,216.6l1.9,2.6l68.9,91.1H912.9L985,216.6 M985,215c-24.7,32.1-49.4,64.2-74.1,96.3c49,0,97.9,0,146.9,0
				C1033.5,279.2,1009.3,247.1,985,215L985,215z"/>
		</g>
	</g>
	<g>
		<path class="st1" d="M984.5,190.2c19.1,25.4,38.2,50.9,57.3,76.3c-38.3-0.3-76.6-0.7-114.9-1C946.1,240.4,965.3,215.3,984.5,190.2
			z"/>
	</g>
	<g>
		<g>
			<line class="st2" x1="966.2" y1="273.5" x2="957.8" y2="281.9"/>
			<line class="st0" x1="966.2" y1="273.5" x2="957.8" y2="281.9"/>
		</g>
		<g>
			<line class="st2" x1="950.7" y1="273.5" x2="959.1" y2="281.9"/>
			<line class="st0" x1="950.7" y1="273.5" x2="959.1" y2="281.9"/>
		</g>
	</g>
	<g>
		<g>
			<line class="st2" x1="992.1" y1="237.8" x2="983.7" y2="246.2"/>
			<line class="st0" x1="992.1" y1="237.8" x2="983.7" y2="246.2"/>
		</g>
		<g>
			<line class="st2" x1="976.6" y1="237.8" x2="985" y2="246.2"/>
			<line class="st0" x1="976.6" y1="237.8" x2="985" y2="246.2"/>
		</g>
	</g>
	<g>
		<g>
			<line class="st2" x1="1012.1" y1="279.6" x2="1003.7" y2="288"/>
			<line class="st0" x1="1012.1" y1="279.6" x2="1003.7" y2="288"/>
		</g>
		<g>
			<line class="st2" x1="996.7" y1="279.6" x2="1005" y2="288"/>
			<line class="st0" x1="996.7" y1="279.6" x2="1005" y2="288"/>
		</g>
	</g>
	<g>
		<g>
			<line class="st2" x1="987.3" y1="298.1" x2="978.9" y2="306.5"/>
			<line class="st0" x1="987.3" y1="298.1" x2="978.9" y2="306.5"/>
		</g>
		<g>
			<line class="st2" x1="971.8" y1="298.1" x2="980.2" y2="306.5"/>
			<line class="st0" x1="971.8" y1="298.1" x2="980.2" y2="306.5"/>
		</g>
	</g>
	<g>
		<g>
			<line class="st2" x1="954.9" y1="323.6" x2="946.5" y2="332"/>
			<line class="st0" x1="954.9" y1="323.6" x2="946.5" y2="332"/>
		</g>
		<g>
			<line class="st2" x1="939.5" y1="323.6" x2="947.9" y2="332"/>
			<line class="st0" x1="939.5" y1="323.6" x2="947.9" y2="332"/>
		</g>
	</g>
	<g>
		<g>
			<line class="st2" x1="1017.7" y1="315.1" x2="1009.3" y2="323.5"/>
			<line class="st0" x1="1017.7" y1="315.1" x2="1009.3" y2="323.5"/>
		</g>
		<g>
			<line class="st2" x1="1002.3" y1="315.1" x2="1010.7" y2="323.5"/>
			<line class="st0" x1="1002.3" y1="315.1" x2="1010.7" y2="323.5"/>
		</g>
	</g>
</g>
<path class="st3" d="M451.3,438.7"/>
<g>
	
		<ellipse transform="matrix(0.1705 -0.9854 0.9854 0.1705 574.9132 1443.0499)" class="st1" cx="1144.6" cy="380" rx="18.3" ry="66.6"/>
	<path class="st3" d="M1178.9,372c-2.5,6.8-23.9,6.1-39,2.6c-1.6-0.4-24.9-6-25-13.7c0-0.7,0.2-1.7,1.6-3.5
		c8.4-10.1,30.9-6.5,33.5-6.1c5.9,1,20.4,3.4,26.9,14C1178.3,367.7,1179.7,369.9,1178.9,372z"/>
	<g>
		<path class="st0" d="M1169.7,398.3c-11.5,0-20.9-1.6-30-3.1c-5.9-1-13.2-2.2-22.7-5c-0.2,0-15.6-4.6-26.5-11.6
			c-0.4-0.2-0.4-0.3-0.8-0.6c-0.5-0.4-1.6-1.2-4.6-3.4c0,0-2.8-2.1-4.2-4.4c-0.1-0.2-0.5-0.8-0.5-1.5c0-0.2,0-0.3,0-0.4
			c0-0.1,0.1-0.7,0.7-1c0.2-0.1,0.4-0.2,0.7-0.2c0.4,0,0.9,0.2,1.2,0.5c3.6,3.6,7.6,6.7,12,9.3c3.6,2.1,6.8,3.5,10.5,5
			c5.3,2.1,16.7,6,33.3,8.9c7.2,1.3,14.4,2.2,21,2.7c3.9,0.3,8.2,0.6,13.1,0.6c1.5,0,3,0,4.4-0.1c9.4-0.4,18.9-2.1,28.2-5.1
			c0.3-0.1,0.6-0.1,0.9-0.1c0.6,0,1.1,0.2,1.3,0.5c0.3,0.4,0.3,0.8,0.3,1.1c0,0.8-0.5,1.3-0.7,1.5l-2.3,1.3c-1.3,0.5-2.7,1-4.1,1.4
			c-2.8,0.8-5.7,1.4-8.6,1.9c-6.1,1.1-12.5,1.8-18.7,2C1172.3,398.3,1171,398.3,1169.7,398.3z"/>
		<g>
			<path class="st0" d="M1081.7,367.5c0.3,0,0.6,0.1,0.9,0.3c3.6,3.6,7.7,6.8,12.1,9.4c3.6,2.1,6.9,3.6,10.6,5
				c5.3,2.1,16.8,6,33.4,8.9c7.2,1.3,14.5,2.2,21.1,2.7c3.9,0.3,8.2,0.6,13.1,0.6c1.5,0,3,0,4.4-0.1c9.5-0.4,19-2.1,28.3-5.2
				c0.2-0.1,0.5-0.1,0.7-0.1c0.4,0,0.8,0.1,1,0.3c0.2,0.2,0.2,0.6,0.2,0.7c0,0.5-0.3,0.9-0.5,1.1l-0.4,0.2l-1.8,1
				c-1.3,0.5-2.7,1-4.1,1.4c-2.8,0.8-5.6,1.4-8.5,1.8c-6.1,1.1-12.4,1.7-18.7,1.9c-1.3,0-2.6,0.1-3.9,0.1c-11.5,0-20.8-1.6-29.9-3.1
				c-5.9-1-13.2-2.2-22.6-5c-0.2,0-15.5-4.6-26.4-11.5c-0.3-0.2-0.4-0.3-0.8-0.6c-0.5-0.4-1.6-1.2-4.6-3.4l0,0
				c-0.1-0.1-2.8-2.1-4.1-4.2c-0.1-0.2-0.4-0.7-0.4-1.3c0-0.1,0-0.2,0-0.3c0,0,0.1-0.4,0.4-0.6
				C1081.4,367.6,1081.6,367.5,1081.7,367.5 M1081.7,366.5c-0.3,0-0.6,0.1-0.9,0.2c-0.8,0.4-0.9,1.3-0.9,1.4v0c0,0.1,0,0.3,0,0.5
				c0,0.9,0.4,1.5,0.6,1.8c1.5,2.4,4.3,4.5,4.3,4.5c5.3,3.9,4.5,3.5,5.4,4c11.2,7.1,26.7,11.6,26.7,11.6c9.3,2.7,16.5,4,22.8,5
				c9.6,1.6,18.8,3.1,30.1,3.1c1.3,0,2.6,0,4-0.1c8-0.2,14.5-1.2,18.8-2c2.6-0.4,5.5-1,8.6-1.9c1.5-0.4,2.9-0.9,4.2-1.4
				c0.8-0.4,1.6-0.9,2.3-1.3c0.2-0.2,0.9-0.9,0.9-1.9c0-0.3,0-0.9-0.5-1.4c-0.4-0.4-1-0.7-1.7-0.7c-0.3,0-0.7,0.1-1,0.2
				c-11.6,3.7-21.3,4.8-28.1,5.1c-1.5,0.1-3,0.1-4.4,0.1c-4.9,0-9.2-0.3-13.1-0.6c-3-0.2-10.7-0.9-21-2.7
				c-18.4-3.3-30.1-7.6-33.2-8.9c-3.8-1.5-7-2.9-10.5-4.9c-5.5-3.2-9.4-6.7-11.9-9.3C1082.8,366.7,1082.3,366.5,1081.7,366.5
				L1081.7,366.5z"/>
		</g>
	</g>
</g>
<line class="st4" x1="851.3" y1="544.7" x2="869.6" y2="544.7"/>
<line class="st2" x1="922.8" y1="531.9" x2="946.7" y2="531.5"/>
<line class="st2" x1="966.5" y1="548" x2="983.1" y2="548"/>
<line class="st2" x1="1028.3" y1="509.5" x2="1050.7" y2="509.5"/>
<line class="st2" x1="1055" y1="531.9" x2="1078.9" y2="531.9"/>
<line class="st2" x1="1094.7" y1="513" x2="1102" y2="513"/>
<line class="st2" x1="1110.7" y1="544.7" x2="1135.3" y2="544.7"/>
<line class="st2" x1="876" y1="518.7" x2="894" y2="519.3"/>
<line class="st2" x1="802.7" y1="506" x2="812.7" y2="506"/>
<line class="st2" x1="910.9" y1="506" x2="929.5" y2="506"/>
<g>
	<line class="st5" x1="1136.5" y1="407" x2="1134.1" y2="420.9"/>
	<line class="st1" x1="1136.5" y1="407" x2="1134.1" y2="420.9"/>
</g>
<g>
	<line class="st5" x1="1154" y1="410.5" x2="1156.4" y2="424.3"/>
	<line class="st1" x1="1154" y1="410.5" x2="1156.4" y2="424.3"/>
</g>
<g>
	<line class="st5" x1="1120.1" y1="404.1" x2="1113.1" y2="416.3"/>
	<line class="st1" x1="1120.1" y1="404.1" x2="1113.1" y2="416.3"/>
</g>
<g>
	<circle class="st1" cx="1239.6" cy="577.5" r="5.7"/>
	<g>
		<path class="st0" d="M1239.6,572.8c2.6,0,4.7,2.1,4.7,4.7s-2.1,4.7-4.7,4.7c-2.6,0-4.7-2.1-4.7-4.7S1237,572.8,1239.6,572.8
			 M1239.6,570.8c-3.7,0-6.7,3-6.7,6.7s3,6.7,6.7,6.7c3.7,0,6.7-3,6.7-6.7S1243.3,570.8,1239.6,570.8L1239.6,570.8z"/>
	</g>
</g>
<g>
	<circle class="st1" cx="1253.1" cy="499.3" r="5.7"/>
	<g>
		<path class="st0" d="M1253.1,494.5c2.6,0,4.7,2.1,4.7,4.7s-2.1,4.7-4.7,4.7s-4.7-2.1-4.7-4.7S1250.5,494.5,1253.1,494.5
			 M1253.1,492.5c-3.7,0-6.7,3-6.7,6.7s3,6.7,6.7,6.7s6.7-3,6.7-6.7S1256.8,492.5,1253.1,492.5L1253.1,492.5z"/>
	</g>
</g>
<g>
	<circle class="st1" cx="1186.1" cy="215" r="5.7"/>
	<g>
		<path class="st0" d="M1186.1,210.2c2.6,0,4.7,2.1,4.7,4.7s-2.1,4.7-4.7,4.7s-4.7-2.1-4.7-4.7S1183.5,210.2,1186.1,210.2
			 M1186.1,208.2c-3.7,0-6.7,3-6.7,6.7s3,6.7,6.7,6.7s6.7-3,6.7-6.7S1189.8,208.2,1186.1,208.2L1186.1,208.2z"/>
	</g>
</g>
<g>
	<circle class="st1" cx="1351.1" cy="162.3" r="5.7"/>
	<g>
		<path class="st0" d="M1351.1,157.5c2.6,0,4.7,2.1,4.7,4.7s-2.1,4.7-4.7,4.7s-4.7-2.1-4.7-4.7S1348.5,157.5,1351.1,157.5
			 M1351.1,155.5c-3.7,0-6.7,3-6.7,6.7s3,6.7,6.7,6.7s6.7-3,6.7-6.7S1354.8,155.5,1351.1,155.5L1351.1,155.5z"/>
	</g>
</g>
<g>
	<circle class="st1" cx="201.1" cy="228.4" r="5.7"/>
	<g>
		<path class="st0" d="M201.1,223.6c2.6,0,4.7,2.1,4.7,4.7s-2.1,4.7-4.7,4.7s-4.7-2.1-4.7-4.7S198.5,223.6,201.1,223.6 M201.1,221.6
			c-3.7,0-6.7,3-6.7,6.7c0,3.7,3,6.7,6.7,6.7c3.7,0,6.7-3,6.7-6.7C207.8,224.6,204.8,221.6,201.1,221.6L201.1,221.6z"/>
	</g>
</g>
<g>
	<circle class="st1" cx="387.1" cy="492.5" r="5.7"/>
	<g>
		<path class="st0" d="M387.1,487.8c2.6,0,4.7,2.1,4.7,4.7s-2.1,4.7-4.7,4.7s-4.7-2.1-4.7-4.7S384.5,487.8,387.1,487.8 M387.1,485.8
			c-3.7,0-6.7,3-6.7,6.7s3,6.7,6.7,6.7s6.7-3,6.7-6.7S390.8,485.8,387.1,485.8L387.1,485.8z"/>
	</g>
</g>
<g>
	<circle class="st1" cx="201.1" cy="667.8" r="5.7"/>
	<g>
		<path class="st0" d="M201.1,663c2.6,0,4.7,2.1,4.7,4.7c0,2.6-2.1,4.7-4.7,4.7s-4.7-2.1-4.7-4.7C196.3,665.1,198.5,663,201.1,663
			 M201.1,661c-3.7,0-6.7,3-6.7,6.7c0,3.7,3,6.7,6.7,6.7c3.7,0,6.7-3,6.7-6.7C207.8,664,204.8,661,201.1,661L201.1,661z"/>
	</g>
</g>
<g>
	<circle class="st1" cx="387.1" cy="696.3" r="5.7"/>
	<g>
		<path class="st0" d="M387.1,691.5c2.6,0,4.7,2.1,4.7,4.7c0,2.6-2.1,4.7-4.7,4.7s-4.7-2.1-4.7-4.7
			C382.3,693.6,384.5,691.5,387.1,691.5 M387.1,689.5c-3.7,0-6.7,3-6.7,6.7c0,3.7,3,6.7,6.7,6.7s6.7-3,6.7-6.7
			C393.8,692.5,390.8,689.5,387.1,689.5L387.1,689.5z"/>
	</g>
</g>
<g>
	<circle class="st1" cx="373.6" cy="720.3" r="5.7"/>
	<g>
		<path class="st0" d="M373.6,715.5c2.6,0,4.7,2.1,4.7,4.7c0,2.6-2.1,4.7-4.7,4.7s-4.7-2.1-4.7-4.7
			C368.9,717.6,371,715.5,373.6,715.5 M373.6,713.5c-3.7,0-6.7,3-6.7,6.7c0,3.7,3,6.7,6.7,6.7s6.7-3,6.7-6.7
			C380.3,716.5,377.3,713.5,373.6,713.5L373.6,713.5z"/>
	</g>
</g>
</svg>
