<?xml version="1.0" encoding="utf-8"?>
<!-- Generator: Adobe Illustrator 20.1.0, SVG Export Plug-In . SVG Version: 6.00 Build 0)  -->
<svg version="1.1" id="Layer_1" xmlns="http://www.w3.org/2000/svg" xmlns:xlink="http://www.w3.org/1999/xlink" x="0px" y="0px"
	 viewBox="0 0 1366 768" style="enable-background:new 0 0 1366 768;" xml:space="preserve">
<style type="text/css">
	.st0{fill:#5CDB95;}
	.st1{fill:#05386B;}
	.st2{fill:none;stroke:#5CDB95;stroke-width:2;stroke-miterlimit:10;}
	.st3{fill:#05386B;stroke:#5CDB95;stroke-width:2;stroke-miterlimit:10;}
	.st4{fill:#5CDB95;stroke:#5CDB95;stroke-width:2;stroke-miterlimit:10;}
	.st5{fill:none;stroke:#05386B;stroke-width:2;stroke-miterlimit:10;}
</style>
<g>
	<rect x="-7.2" y="-6.9" class="st0" width="1380.5" height="781.7"/>
	<path d="M1372.7-6.4v780.7H-6.7V-6.4H1372.7 M1373.7-7.4H-7.7v782.7h1381.5V-7.4L1373.7-7.4z"/>
</g>
<g>
	<polygon class="st1" points="801.3,484.6 715.3,414.4 1067.3,413.8 1173,485.9 	"/>
	<path class="st0" d="M1067,414.8l102.7,70.1l-180.8-0.6l-187.3-0.6l-83.5-68.2l171.9-0.3L1067,414.8 M1067.6,412.8
		c-118.4,0.2-236.7,0.4-355.1,0.7c29.5,24.1,58.9,48.1,88.4,72.2c125.1,0.4,250.2,0.8,375.3,1.2
		C1140,462.2,1103.8,437.5,1067.6,412.8L1067.6,412.8z"/>
</g>
<g>
	<polygon class="st1" points="712.8,454.3 713.5,415.5 799.9,486.1 799.4,531.6 	"/>
	<g>
		<path class="st0" d="M714.4,417.6l48.5,39.6l36,29.4l-0.3,23.1l-0.2,19.7L765.5,500l-51.7-46.1L714.4,417.6 M712.5,413.5
			c-0.2,13.8-0.5,27.6-0.7,41.3c29.5,26.3,59.1,52.7,88.6,79c0.2-16,0.4-32.1,0.5-48.1C771.4,461.6,742,437.5,712.5,413.5
			L712.5,413.5z"/>
	</g>
</g>
<g>
	<g>
		<path class="st1" d="M944.5,702.8c-7.7,0-13.9-2.9-17.1-4.8V505.8h33.8v192.3c-3.9,2.4-8.2,3.9-12.7,4.5
			C947.2,702.7,945.9,702.8,944.5,702.8z"/>
		<g>
			<path class="st0" d="M960.3,506.8v190.7c-3.7,2.2-7.7,3.5-11.8,4.1c-1.3,0.2-2.6,0.2-3.9,0.2c-7.1,0-12.8-2.5-16.1-4.3V506.8
				H960.3 M962.3,504.8h-35.8c0,64.6,0,129.2,0,193.8c2.4,1.5,9.1,5.2,18.1,5.2c1.3,0,2.7-0.1,4.1-0.3c6.2-0.8,10.9-3.2,13.6-4.9
				V504.8L962.3,504.8z"/>
		</g>
	</g>
	<g>
		<line class="st2" x1="937.4" y1="552.3" x2="936.8" y2="629"/>
		<line class="st0" x1="937.4" y1="552.3" x2="936.8" y2="629"/>
	</g>
	<g>
		<line class="st2" x1="952.7" y1="624.3" x2="952.1" y2="701"/>
		<line class="st0" x1="952.7" y1="624.3" x2="952.1" y2="701"/>
	</g>
	<g>
		<line class="st2" x1="952.5" y1="571.6" x2="952.2" y2="609.9"/>
		<line class="st0" x1="952.5" y1="571.6" x2="952.2" y2="609.9"/>
	</g>
</g>
<g>
	<g>
		<path class="st1" d="M944.5,448.8c-7.7,0-13.9-2.9-17.1-4.8V251.8h33.8v192.3c-3.9,2.4-8.2,3.9-12.7,4.5
			C947.2,448.8,945.9,448.8,944.5,448.8z"/>
		<g>
			<path class="st0" d="M960.3,252.8v190.7c-3.7,2.2-7.7,3.5-11.8,4.1c-1.3,0.2-2.6,0.2-3.9,0.2c-7.1,0-12.8-2.5-16.1-4.3V252.8
				H960.3 M962.3,250.8h-35.8c0,64.6,0,129.2,0,193.8c2.4,1.5,9.1,5.2,18.1,5.2c1.3,0,2.7-0.1,4.1-0.3c6.2-0.8,10.9-3.2,13.6-4.9
				V250.8L962.3,250.8z"/>
		</g>
	</g>
	<g>
		<line class="st2" x1="937.4" y1="298.3" x2="936.8" y2="375"/>
		<line class="st0" x1="937.4" y1="298.3" x2="936.8" y2="375"/>
	</g>
	<g>
		<line class="st2" x1="952.7" y1="370.3" x2="952.1" y2="447"/>
		<line class="st0" x1="952.7" y1="370.3" x2="952.1" y2="447"/>
	</g>
	<g>
		<line class="st2" x1="952.5" y1="317.6" x2="952.2" y2="355.9"/>
		<line class="st0" x1="952.5" y1="317.6" x2="952.2" y2="355.9"/>
	</g>
</g>
<g>
	<polygon class="st1" points="801.4,532.8 801.9,486.6 1175.2,487.9 1173.5,552.5 	"/>
	<g>
		<path class="st0" d="M802.9,487.6l371.3,1.2l-0.8,31.3l-0.8,31.3l-128.9-6.8l-241.2-12.7l0.2-22.2L802.9,487.6 M800.9,485.6
			c-0.2,16-0.4,32.1-0.5,48.1c124.7,6.6,249.4,13.2,374.1,19.8c0.6-22.2,1.2-44.4,1.8-66.7C1051.1,486.5,926,486.1,800.9,485.6
			L800.9,485.6z"/>
	</g>
</g>
<line class="st2" x1="823" y1="500.5" x2="823" y2="510.5"/>
<line class="st2" x1="854" y1="510.5" x2="854" y2="517.5"/>
<line class="st2" x1="894.5" y1="494.5" x2="894" y2="504.8"/>
<line class="st2" x1="915" y1="519.6" x2="915" y2="527.5"/>
<line class="st2" x1="944.4" y1="504.8" x2="944.4" y2="514"/>
<line class="st2" x1="979.5" y1="492" x2="979" y2="499.6"/>
<line class="st2" x1="1015" y1="523.5" x2="1015" y2="531.5"/>
<line class="st2" x1="1047" y1="499.6" x2="1047" y2="509.4"/>
<line class="st2" x1="1102" y1="499.6" x2="1102" y2="509.4"/>
<line class="st2" x1="1085" y1="523.5" x2="1085.5" y2="531.5"/>
<line class="st2" x1="1142" y1="514" x2="1141.5" y2="523.5"/>
<line class="st2" x1="721" y1="429" x2="721" y2="436"/>
<line class="st2" x1="732.8" y1="447" x2="732.8" y2="454.5"/>
<line class="st2" x1="750.8" y1="450.7" x2="750.8" y2="459"/>
<line class="st2" x1="759.3" y1="476.5" x2="759.3" y2="485.6"/>
<line class="st2" x1="776.5" y1="471" x2="776.5" y2="481.1"/>
<line class="st2" x1="783.8" y1="495.8" x2="783.8" y2="504.5"/>
<g>
	<circle class="st1" cx="889.5" cy="287.8" r="5.7"/>
	<g>
		<path class="st0" d="M889.5,283c2.6,0,4.7,2.1,4.7,4.7s-2.1,4.7-4.7,4.7s-4.7-2.1-4.7-4.7S886.9,283,889.5,283 M889.5,281
			c-3.7,0-6.7,3-6.7,6.7s3,6.7,6.7,6.7s6.7-3,6.7-6.7S893.2,281,889.5,281L889.5,281z"/>
	</g>
</g>
<g>
	<circle class="st1" cx="910.3" cy="287.8" r="5.7"/>
	<g>
		<path class="st0" d="M910.3,283c2.6,0,4.7,2.1,4.7,4.7s-2.1,4.7-4.7,4.7s-4.7-2.1-4.7-4.7S907.6,283,910.3,283 M910.3,281
			c-3.7,0-6.7,3-6.7,6.7s3,6.7,6.7,6.7s6.7-3,6.7-6.7S914,281,910.3,281L910.3,281z"/>
	</g>
</g>
<g>
	<circle class="st1" cx="889.5" cy="308.3" r="5.7"/>
	<g>
		<path class="st0" d="M889.5,303.5c2.6,0,4.7,2.1,4.7,4.7s-2.1,4.7-4.7,4.7s-4.7-2.1-4.7-4.7S886.9,303.5,889.5,303.5 M889.5,301.5
			c-3.7,0-6.7,3-6.7,6.7s3,6.7,6.7,6.7s6.7-3,6.7-6.7S893.2,301.5,889.5,301.5L889.5,301.5z"/>
	</g>
</g>
<g>
	<path class="st1" d="M897.9,273c0.4-1.6,0.9-4.1,1.2-7.2c1-9,2-17.3-2.2-23.8c-4-6.1-10.5-7.6-13-7.7c-3.9-0.2-5.7,0.6-5.7,0.6
		c-0.8,0.4-1.3,0.6-1.3,0.6l0,0c0,0,0.4-3.2,0.5-3.5c0.3-2.9-1.9-8.8-4.5-12.4c-10.5-14.7-30-17.7-30-17.7
		c-18.8-2.9-37.4,5.4-47.7,18.6c-0.6,0.8-10.3,13.4-7.5,19.2c0.6,1.2,2.2,3,2.2,2.9c0,0-1.2-1.6-2.2-2.9c-2.8-3.6-8.8-2.5-11.9-1.3
		c-1.2,0.5-7,2.7-8.9,9.1c-1.4,4.6-0.1,9.5,0.1,10.2c0.2,0.9,0.9,3.3,1,3.2c0,0,0-1.4-0.6-1.9c-1.5-1.2-6.7,1.8-7.8,6.8
		c-0.7,3.3,0.7,6.3,1.2,7.2H897.9z"/>
</g>
<g>
	<circle class="st1" cx="910.3" cy="308.3" r="5.7"/>
	<g>
		<path class="st0" d="M910.3,303.5c2.6,0,4.7,2.1,4.7,4.7s-2.1,4.7-4.7,4.7c-2.6,0-4.7-2.1-4.7-4.7S907.6,303.5,910.3,303.5
			 M910.3,301.5c-3.7,0-6.7,3-6.7,6.7s3,6.7,6.7,6.7c3.7,0,6.7-3,6.7-6.7S914,301.5,910.3,301.5L910.3,301.5z"/>
	</g>
</g>
<g>
	<circle class="st1" cx="889.5" cy="329.9" r="5.7"/>
	<g>
		<path class="st0" d="M889.5,325.2c2.6,0,4.7,2.1,4.7,4.7s-2.1,4.7-4.7,4.7s-4.7-2.1-4.7-4.7S886.9,325.2,889.5,325.2 M889.5,323.2
			c-3.7,0-6.7,3-6.7,6.7s3,6.7,6.7,6.7s6.7-3,6.7-6.7S893.2,323.2,889.5,323.2L889.5,323.2z"/>
	</g>
</g>
<g>
	<path class="st1" d="M736.9,344c0.4-1.6,0.9-4.1,1.2-7.2c1-9,2-17.3-2.2-23.8c-4-6.1-10.5-7.6-13-7.7c-3.9-0.2-5.7,0.6-5.7,0.6
		c-0.8,0.4-1.3,0.6-1.3,0.6l0,0c0,0,0.4-3.2,0.5-3.5c0.3-2.9-1.9-8.8-4.5-12.4c-10.5-14.7-30-17.7-30-17.7
		c-18.8-2.9-37.4,5.4-47.7,18.6c-0.6,0.8-10.3,13.4-7.5,19.2c0.6,1.2,2.2,3,2.2,2.9c0,0-1.2-1.6-2.2-2.9c-2.8-3.6-8.8-2.5-11.9-1.3
		c-1.2,0.5-7,2.7-8.9,9.1c-1.4,4.6-0.1,9.5,0.1,10.2c0.2,0.9,0.9,3.3,1,3.2c0,0,0-1.4-0.6-1.9c-1.5-1.2-6.7,1.8-7.8,6.8
		c-0.7,3.3,0.7,6.3,1.2,7.2H736.9z"/>
</g>
<g>
	<g>
		<polygon class="st1" points="852.2,271.4 941.2,178.8 1036.4,272.2 		"/>
		<g>
			<path class="st0" d="M941.2,180.2l47.4,46.5l45.3,44.5l-89.4-0.4l-90.1-0.4l42.4-44.2L941.2,180.2 M941.2,177.4
				c-30.5,31.7-60.9,63.4-91.4,95.1c63,0.3,126,0.6,189,0.8C1006.3,241.3,973.8,209.3,941.2,177.4L941.2,177.4z"/>
		</g>
	</g>
	<g>
		<polygon class="st1" points="871.9,233.8 945,138.8 1016.8,233.8 		"/>
		<g>
			<path class="st0" d="M945,139.6l1.9,2.6l68.9,91.1H872.9L945,139.6 M945,138c-24.7,32.1-49.4,64.2-74.1,96.3c49,0,97.9,0,146.9,0
				C993.5,202.2,969.3,170.1,945,138L945,138z"/>
		</g>
	</g>
	<g>
		<path class="st1" d="M944.5,113.2c19.1,25.4,38.2,50.9,57.3,76.3c-38.3-0.3-76.6-0.7-114.9-1C906.1,163.4,925.3,138.3,944.5,113.2
			z"/>
	</g>
	<g>
		<g>
			<line class="st2" x1="926.2" y1="196.5" x2="917.8" y2="204.9"/>
			<line class="st0" x1="926.2" y1="196.5" x2="917.8" y2="204.9"/>
		</g>
		<g>
			<line class="st2" x1="910.7" y1="196.5" x2="919.1" y2="204.9"/>
			<line class="st0" x1="910.7" y1="196.5" x2="919.1" y2="204.9"/>
		</g>
	</g>
	<g>
		<g>
			<line class="st2" x1="952.1" y1="160.8" x2="943.7" y2="169.2"/>
			<line class="st0" x1="952.1" y1="160.8" x2="943.7" y2="169.2"/>
		</g>
		<g>
			<line class="st2" x1="936.6" y1="160.8" x2="945" y2="169.2"/>
			<line class="st0" x1="936.6" y1="160.8" x2="945" y2="169.2"/>
		</g>
	</g>
	<g>
		<g>
			<line class="st2" x1="972.1" y1="202.6" x2="963.7" y2="211"/>
			<line class="st0" x1="972.1" y1="202.6" x2="963.7" y2="211"/>
		</g>
		<g>
			<line class="st2" x1="956.7" y1="202.6" x2="965" y2="211"/>
			<line class="st0" x1="956.7" y1="202.6" x2="965" y2="211"/>
		</g>
	</g>
	<g>
		<g>
			<line class="st2" x1="947.3" y1="221.1" x2="938.9" y2="229.5"/>
			<line class="st0" x1="947.3" y1="221.1" x2="938.9" y2="229.5"/>
		</g>
		<g>
			<line class="st2" x1="931.8" y1="221.1" x2="940.2" y2="229.5"/>
			<line class="st0" x1="931.8" y1="221.1" x2="940.2" y2="229.5"/>
		</g>
	</g>
	<g>
		<g>
			<line class="st2" x1="914.9" y1="246.6" x2="906.5" y2="255"/>
			<line class="st0" x1="914.9" y1="246.6" x2="906.5" y2="255"/>
		</g>
		<g>
			<line class="st2" x1="899.5" y1="246.6" x2="907.9" y2="255"/>
			<line class="st0" x1="899.5" y1="246.6" x2="907.9" y2="255"/>
		</g>
	</g>
	<g>
		<g>
			<line class="st2" x1="977.7" y1="238.1" x2="969.3" y2="246.5"/>
			<line class="st0" x1="977.7" y1="238.1" x2="969.3" y2="246.5"/>
		</g>
		<g>
			<line class="st2" x1="962.3" y1="238.1" x2="970.7" y2="246.5"/>
			<line class="st0" x1="962.3" y1="238.1" x2="970.7" y2="246.5"/>
		</g>
	</g>
</g>
<path class="st3" d="M411.3,361.7"/>
<g>
	
		<ellipse transform="matrix(0.1705 -0.9854 0.9854 0.1705 617.6063 1339.766)" class="st1" cx="1104.6" cy="303" rx="18.3" ry="66.6"/>
	<path class="st3" d="M1138.9,295c-2.5,6.8-23.9,6.1-39,2.6c-1.6-0.4-24.9-6-25-13.7c0-0.7,0.2-1.7,1.6-3.5
		c8.4-10.1,30.9-6.5,33.5-6.1c5.9,1,20.4,3.4,26.9,14C1138.3,290.7,1139.7,292.9,1138.9,295z"/>
	<g>
		<path class="st0" d="M1129.7,321.3c-11.5,0-20.9-1.6-30-3.1c-5.9-1-13.2-2.2-22.7-5c-0.2,0-15.6-4.6-26.5-11.6
			c-0.4-0.2-0.4-0.3-0.8-0.6c-0.5-0.4-1.6-1.2-4.6-3.4c0,0-2.8-2.1-4.2-4.4c-0.1-0.2-0.5-0.8-0.5-1.5c0-0.2,0-0.3,0-0.4
			c0-0.1,0.1-0.7,0.7-1c0.2-0.1,0.4-0.2,0.7-0.2c0.4,0,0.9,0.2,1.2,0.5c3.6,3.6,7.6,6.7,12,9.3c3.6,2.1,6.8,3.5,10.5,5
			c5.3,2.1,16.7,6,33.3,8.9c7.2,1.3,14.4,2.2,21,2.7c3.9,0.3,8.2,0.6,13.1,0.6c1.5,0,3,0,4.4-0.1c9.4-0.4,18.9-2.1,28.2-5.1
			c0.3-0.1,0.6-0.1,0.9-0.1c0.6,0,1.1,0.2,1.3,0.5c0.3,0.4,0.3,0.8,0.3,1.1c0,0.8-0.5,1.3-0.7,1.5l-2.3,1.3c-1.3,0.5-2.7,1-4.1,1.4
			c-2.8,0.8-5.7,1.4-8.6,1.9c-6.1,1.1-12.5,1.8-18.7,2C1132.3,321.3,1131,321.3,1129.7,321.3z"/>
		<g>
			<path class="st0" d="M1041.7,290.5c0.3,0,0.6,0.1,0.9,0.3c3.6,3.6,7.7,6.8,12.1,9.4c3.6,2.1,6.9,3.6,10.6,5
				c5.3,2.1,16.8,6,33.4,8.9c7.2,1.3,14.5,2.2,21.1,2.7c3.9,0.3,8.2,0.6,13.1,0.6c1.5,0,3,0,4.4-0.1c9.5-0.4,19-2.1,28.3-5.2
				c0.2-0.1,0.5-0.1,0.7-0.1c0.4,0,0.8,0.1,1,0.3c0.2,0.2,0.2,0.6,0.2,0.7c0,0.5-0.3,0.9-0.5,1.1l-0.4,0.2l-1.8,1
				c-1.3,0.5-2.7,1-4.1,1.4c-2.8,0.8-5.6,1.4-8.5,1.8c-6.1,1.1-12.4,1.7-18.7,1.9c-1.3,0-2.6,0.1-3.9,0.1c-11.5,0-20.8-1.6-29.9-3.1
				c-5.9-1-13.2-2.2-22.6-5c-0.2,0-15.5-4.6-26.4-11.5c-0.3-0.2-0.4-0.3-0.8-0.6c-0.5-0.4-1.6-1.2-4.6-3.4l0,0
				c-0.1-0.1-2.8-2.1-4.1-4.2c-0.1-0.2-0.4-0.7-0.4-1.3c0-0.1,0-0.2,0-0.3c0,0,0.1-0.4,0.4-0.6
				C1041.4,290.6,1041.6,290.5,1041.7,290.5 M1041.7,289.5c-0.3,0-0.6,0.1-0.9,0.2c-0.8,0.4-0.9,1.3-0.9,1.4v0c0,0.1,0,0.3,0,0.5
				c0,0.9,0.4,1.5,0.6,1.8c1.5,2.4,4.3,4.5,4.3,4.5c5.3,3.9,4.5,3.5,5.4,4c11.2,7.1,26.7,11.6,26.7,11.6c9.3,2.7,16.5,4,22.8,5
				c9.6,1.6,18.8,3.1,30.1,3.1c1.3,0,2.6,0,4-0.1c8-0.2,14.5-1.2,18.8-2c2.6-0.4,5.5-1,8.6-1.9c1.5-0.4,2.9-0.9,4.2-1.4
				c0.8-0.4,1.6-0.9,2.3-1.3c0.2-0.2,0.9-0.9,0.9-1.9c0-0.3,0-0.9-0.5-1.4c-0.4-0.4-1-0.7-1.7-0.7c-0.3,0-0.7,0.1-1,0.2
				c-11.6,3.7-21.3,4.8-28.1,5.1c-1.5,0.1-3,0.1-4.4,0.1c-4.9,0-9.2-0.3-13.1-0.6c-3-0.2-10.7-0.9-21-2.7
				c-18.4-3.3-30.1-7.6-33.2-8.9c-3.8-1.5-7-2.9-10.5-4.9c-5.5-3.2-9.4-6.7-11.9-9.3C1042.8,289.7,1042.3,289.5,1041.7,289.5
				L1041.7,289.5z"/>
		</g>
	</g>
</g>
<line class="st4" x1="811.3" y1="467.7" x2="829.6" y2="467.7"/>
<line class="st2" x1="882.8" y1="454.9" x2="906.7" y2="454.5"/>
<line class="st2" x1="926.5" y1="471" x2="943.1" y2="471"/>
<line class="st2" x1="988.3" y1="432.5" x2="1010.7" y2="432.5"/>
<line class="st2" x1="1015" y1="454.9" x2="1038.9" y2="454.9"/>
<line class="st2" x1="1054.7" y1="436" x2="1062" y2="436"/>
<line class="st2" x1="1070.7" y1="467.7" x2="1095.3" y2="467.7"/>
<line class="st2" x1="836" y1="441.7" x2="854" y2="442.3"/>
<line class="st2" x1="762.7" y1="429" x2="772.7" y2="429"/>
<line class="st2" x1="870.9" y1="429" x2="889.5" y2="429"/>
<g>
	<line class="st5" x1="1096.5" y1="330" x2="1094.1" y2="343.9"/>
	<line class="st1" x1="1096.5" y1="330" x2="1094.1" y2="343.9"/>
</g>
<g>
	<line class="st5" x1="1114" y1="333.5" x2="1116.4" y2="347.3"/>
	<line class="st1" x1="1114" y1="333.5" x2="1116.4" y2="347.3"/>
</g>
<g>
	<line class="st5" x1="1080.1" y1="327.1" x2="1073.1" y2="339.3"/>
	<line class="st1" x1="1080.1" y1="327.1" x2="1073.1" y2="339.3"/>
</g>
<g>
	<circle class="st1" cx="1199.6" cy="500.5" r="5.7"/>
	<g>
		<path class="st0" d="M1199.6,495.8c2.6,0,4.7,2.1,4.7,4.7s-2.1,4.7-4.7,4.7c-2.6,0-4.7-2.1-4.7-4.7S1197,495.8,1199.6,495.8
			 M1199.6,493.8c-3.7,0-6.7,3-6.7,6.7s3,6.7,6.7,6.7c3.7,0,6.7-3,6.7-6.7S1203.3,493.8,1199.6,493.8L1199.6,493.8z"/>
	</g>
</g>
<g>
	<circle class="st1" cx="1213.1" cy="422.3" r="5.7"/>
	<g>
		<path class="st0" d="M1213.1,417.5c2.6,0,4.7,2.1,4.7,4.7s-2.1,4.7-4.7,4.7s-4.7-2.1-4.7-4.7S1210.5,417.5,1213.1,417.5
			 M1213.1,415.5c-3.7,0-6.7,3-6.7,6.7s3,6.7,6.7,6.7s6.7-3,6.7-6.7S1216.8,415.5,1213.1,415.5L1213.1,415.5z"/>
	</g>
</g>
<g>
	<circle class="st1" cx="1146.1" cy="138" r="5.7"/>
	<g>
		<path class="st0" d="M1146.1,133.2c2.6,0,4.7,2.1,4.7,4.7s-2.1,4.7-4.7,4.7s-4.7-2.1-4.7-4.7S1143.5,133.2,1146.1,133.2
			 M1146.1,131.2c-3.7,0-6.7,3-6.7,6.7s3,6.7,6.7,6.7s6.7-3,6.7-6.7S1149.8,131.2,1146.1,131.2L1146.1,131.2z"/>
	</g>
</g>
<g>
	<circle class="st1" cx="1311.1" cy="85.3" r="5.7"/>
	<g>
		<path class="st0" d="M1311.1,80.5c2.6,0,4.7,2.1,4.7,4.7s-2.1,4.7-4.7,4.7s-4.7-2.1-4.7-4.7S1308.5,80.5,1311.1,80.5 M1311.1,78.5
			c-3.7,0-6.7,3-6.7,6.7c0,3.7,3,6.7,6.7,6.7s6.7-3,6.7-6.7C1317.8,81.5,1314.8,78.5,1311.1,78.5L1311.1,78.5z"/>
	</g>
</g>
<g>
	<circle class="st1" cx="161.1" cy="151.4" r="5.7"/>
	<g>
		<path class="st0" d="M161.1,146.6c2.6,0,4.7,2.1,4.7,4.7s-2.1,4.7-4.7,4.7s-4.7-2.1-4.7-4.7S158.5,146.6,161.1,146.6 M161.1,144.6
			c-3.7,0-6.7,3-6.7,6.7c0,3.7,3,6.7,6.7,6.7c3.7,0,6.7-3,6.7-6.7C167.8,147.6,164.8,144.6,161.1,144.6L161.1,144.6z"/>
	</g>
</g>
<g>
	<circle class="st1" cx="347.1" cy="415.5" r="5.7"/>
	<g>
		<path class="st0" d="M347.1,410.8c2.6,0,4.7,2.1,4.7,4.7s-2.1,4.7-4.7,4.7s-4.7-2.1-4.7-4.7S344.5,410.8,347.1,410.8 M347.1,408.8
			c-3.7,0-6.7,3-6.7,6.7s3,6.7,6.7,6.7s6.7-3,6.7-6.7S350.8,408.8,347.1,408.8L347.1,408.8z"/>
	</g>
</g>
<g>
	<circle class="st1" cx="161.1" cy="590.8" r="5.7"/>
	<g>
		<path class="st0" d="M161.1,586c2.6,0,4.7,2.1,4.7,4.7c0,2.6-2.1,4.7-4.7,4.7s-4.7-2.1-4.7-4.7C156.3,588.1,158.5,586,161.1,586
			 M161.1,584c-3.7,0-6.7,3-6.7,6.7c0,3.7,3,6.7,6.7,6.7c3.7,0,6.7-3,6.7-6.7C167.8,587,164.8,584,161.1,584L161.1,584z"/>
	</g>
</g>
<g>
	<circle class="st1" cx="347.1" cy="619.3" r="5.7"/>
	<g>
		<path class="st0" d="M347.1,614.5c2.6,0,4.7,2.1,4.7,4.7c0,2.6-2.1,4.7-4.7,4.7s-4.7-2.1-4.7-4.7
			C342.3,616.6,344.5,614.5,347.1,614.5 M347.1,612.5c-3.7,0-6.7,3-6.7,6.7c0,3.7,3,6.7,6.7,6.7s6.7-3,6.7-6.7
			C353.8,615.5,350.8,612.5,347.1,612.5L347.1,612.5z"/>
	</g>
</g>
<g>
	<circle class="st1" cx="333.6" cy="643.3" r="5.7"/>
	<g>
		<path class="st0" d="M333.6,638.5c2.6,0,4.7,2.1,4.7,4.7c0,2.6-2.1,4.7-4.7,4.7s-4.7-2.1-4.7-4.7
			C328.9,640.6,331,638.5,333.6,638.5 M333.6,636.5c-3.7,0-6.7,3-6.7,6.7c0,3.7,3,6.7,6.7,6.7s6.7-3,6.7-6.7
			C340.3,639.5,337.3,636.5,333.6,636.5L333.6,636.5z"/>
	</g>
</g>
</svg>
