<?xml version="1.0" encoding="utf-8"?>
<!-- Generator: Adobe Illustrator 20.1.0, SVG Export Plug-In . SVG Version: 6.00 Build 0)  -->
<svg version="1.1" id="Layer_1" xmlns="http://www.w3.org/2000/svg" xmlns:xlink="http://www.w3.org/1999/xlink" x="0px" y="0px"
	 viewBox="0 0 120 120" style="enable-background:new 0 0 120 120;" xml:space="preserve">
<style type="text/css">
	.st0{fill:#5CDB95;}
	.st1{fill:#05386B;}
	.st2{font-family:'SegoeScript';}
	.st3{font-size:10px;}
</style>
<rect x="-2.8" y="-4.3" class="st0" width="127.8" height="126.3"/>
<g>
	<path class="st1" d="M42.4,64.5L42.4,64.5c-5.1,0-9.3-4.2-9.3-9.3v-39c0-5.1,4.2-9.3,9.3-9.3h0c5.1,0,9.3,4.2,9.3,9.3v39
		C51.8,60.3,47.6,64.5,42.4,64.5z"/>
	<path class="st1" d="M33.1,16.2L33.1,16.2c0-5.1,4.2-9.3,9.3-9.3h39c5.1,0,9.3,4.2,9.3,9.3v0c0,5.1-4.2,9.3-9.3,9.3h-39
		C37.3,25.5,33.1,21.3,33.1,16.2z"/>
	<path class="st1" d="M61.1,44.2L61.1,44.2c-5.1,0-9.3-4.2-9.3-9.3v0c0-5.1,4.2-9.3,9.3-9.3h0c5.1,0,9.3,4.2,9.3,9.3v0
		C70.4,40,66.2,44.2,61.1,44.2z"/>
	<path class="st1" d="M61.1,64.5L61.1,64.5c-5.1,0-9.3-4.2-9.3-9.3v-1.7c0-5.1,4.2-9.3,9.3-9.3h0c5.1,0,9.3,4.2,9.3,9.3v1.7
		C70.4,60.3,66.2,64.5,61.1,64.5z"/>
	<path class="st1" d="M79.8,83.2L79.8,83.2c-5.1,0-9.3-4.2-9.3-9.3v-39c0-5.1,4.2-9.3,9.3-9.3h0c5.1,0,9.3,4.2,9.3,9.3v39
		C89.1,79,84.9,83.2,79.8,83.2z"/>
	<path class="st1" d="M31.4,73.8L31.4,73.8c0-5.1,4.2-9.3,9.3-9.3h39c5.1,0,9.3,4.2,9.3,9.3v0c0,5.1-4.2,9.3-9.3,9.3h-39
		C35.6,83.2,31.4,79,31.4,73.8z"/>
</g>
<text transform="matrix(1 0 0 1 28.7667 92.3333)" class="st1 st2 st3">Filip Yanev</text>
</svg>
