<?xml version="1.0" encoding="utf-8"?>
<!-- Generator: Adobe Illustrator 20.1.0, SVG Export Plug-In . SVG Version: 6.00 Build 0)  -->
<svg version="1.1" id="Layer_1" xmlns="http://www.w3.org/2000/svg" xmlns:xlink="http://www.w3.org/1999/xlink" x="0px" y="0px"
	 viewBox="0 0 120 120" style="enable-background:new 0 0 120 120;" xml:space="preserve">
<style type="text/css">
	.st0{fill:#5CDB95;}
	.st1{fill:#05386B;}
</style>
<rect x="-2.8" y="-4.3" class="st0" width="127.8" height="126.3"/>
<g>
	<g>
		<path class="st1" d="M120,100.2c-40,5.8-80,11.6-120,17.3C1.6,80,3.2,42.6,4.8,5.1C43.2,7.7,81.6,10.3,120,13
			C120,42,120,71.1,120,100.2z"/>
	</g>
	<g>
		<rect x="25.1" y="27.3" class="st0" width="9.6" height="58.6"/>
		
			<rect x="43.5" y="17.3" transform="matrix(-1.836970e-16 1 -1 -1.836970e-16 80.7046 -16.2018)" class="st0" width="9.8" height="30"/>
		
			<rect x="34.6" y="39" transform="matrix(-1.836970e-16 1 -1 -1.836970e-16 92.8726 13.929)" class="st0" width="9.8" height="28.7"/>
		<rect x="53.8" y="58.3" class="st0" width="9.6" height="27.7"/>
		<rect x="64.8" y="27.3" class="st0" width="9.6" height="58.6"/>
		
			<rect x="74.3" y="66.7" transform="matrix(-1.836970e-16 1 -1 -1.836970e-16 160.2303 1.885)" class="st0" width="9.8" height="28.7"/>
		<rect x="83.9" y="58.3" class="st0" width="9.6" height="16.6"/>
		<polygon class="st0" points="93.1,63.1 83.9,66 75.5,38 84.7,35.1 		"/>
		<polygon class="st0" points="83.9,63.7 93.1,66.6 101.5,38.5 92.3,35.7 		"/>
		<rect x="53.8" y="37.8" class="st0" width="9.6" height="10.6"/>
	</g>
</g>
</svg>
